<svg width="712" height="434" viewBox="0 0 712 434" fill="none" xmlns="http://www.w3.org/2000/svg">
<rect width="712" height="434" rx="15" fill="white"/>
<circle cx="237" cy="181" r="153.5" stroke="#29B6F6" stroke-width="13"/>
<circle cx="531" cy="254" r="153.5" stroke="#EE6E73" stroke-width="13"/>
<rect x="301" y="172" width="167" height="93" rx="12" fill="#C51D4A"/>
<rect x="21.5" y="81.5" width="139" height="67" fill="#C4C4C4" stroke="black"/>
<path d="M160.5 149C160.5 159.506 152.851 169.122 140.254 176.14C127.674 183.149 110.261 187.5 91 187.5C71.7389 187.5 54.3259 183.149 41.7459 176.14C29.1492 169.122 21.5 159.506 21.5 149C21.5 138.494 29.1492 128.878 41.7459 121.86C54.3259 114.851 71.7389 110.5 91 110.5C110.261 110.5 127.674 114.851 140.254 121.86C152.851 128.878 160.5 138.494 160.5 149Z" fill="#C4C4C4" stroke="black"/>
<rect x="21" y="108" width="140" height="41" fill="#C4C4C4"/>
<rect x="21" y="108" width="1" height="41" fill="black"/>
<rect x="160" y="108" width="1" height="41" fill="black"/>
<path d="M160.5 81C160.5 91.5062 152.851 101.122 140.254 108.14C127.674 115.149 110.261 119.5 91 119.5C71.7389 119.5 54.3259 115.149 41.7459 108.14C29.1492 101.122 21.5 91.5062 21.5 81C21.5 70.4938 29.1492 60.8778 41.7459 53.8596C54.3259 46.8507 71.7389 42.5 91 42.5C110.261 42.5 127.674 46.8507 140.254 53.8596C152.851 60.8778 160.5 70.4938 160.5 81Z" fill="#C4C4C4" stroke="black"/>
<path d="M48.1191 135.549H46.1152V139H44.9844V130.469H47.8086C48.7695 130.469 49.5078 130.688 50.0234 131.125C50.543 131.562 50.8027 132.199 50.8027 133.035C50.8027 133.566 50.6582 134.029 50.3691 134.424C50.084 134.818 49.6855 135.113 49.1738 135.309L51.1777 138.93V139H49.9707L48.1191 135.549ZM46.1152 134.629H47.8438C48.4023 134.629 48.8457 134.484 49.1738 134.195C49.5059 133.906 49.6719 133.52 49.6719 133.035C49.6719 132.508 49.5137 132.104 49.1973 131.822C48.8848 131.541 48.4316 131.398 47.8379 131.395H46.1152V134.629ZM51.9277 135.771C51.9277 135.15 52.0488 134.592 52.291 134.096C52.5371 133.6 52.877 133.217 53.3105 132.947C53.748 132.678 54.2461 132.543 54.8047 132.543C55.668 132.543 56.3652 132.842 56.8965 133.439C57.4316 134.037 57.6992 134.832 57.6992 135.824V135.9C57.6992 136.518 57.5801 137.072 57.3418 137.564C57.1074 138.053 56.7695 138.434 56.3281 138.707C55.8906 138.98 55.3867 139.117 54.8164 139.117C53.957 139.117 53.2598 138.818 52.7246 138.221C52.1934 137.623 51.9277 136.832 51.9277 135.848V135.771ZM53.0176 135.9C53.0176 136.604 53.1797 137.168 53.5039 137.594C53.832 138.02 54.2695 138.232 54.8164 138.232C55.3672 138.232 55.8047 138.018 56.1289 137.588C56.4531 137.154 56.6152 136.549 56.6152 135.771C56.6152 135.076 56.4492 134.514 56.1172 134.084C55.7891 133.65 55.3516 133.434 54.8047 133.434C54.2695 133.434 53.8379 133.646 53.5098 134.072C53.1816 134.498 53.0176 135.107 53.0176 135.9ZM62.9727 138.373C62.5508 138.869 61.9316 139.117 61.1152 139.117C60.4395 139.117 59.9238 138.922 59.5684 138.531C59.2168 138.137 59.0391 137.555 59.0352 136.785V132.66H60.1191V136.756C60.1191 137.717 60.5098 138.197 61.291 138.197C62.1191 138.197 62.6699 137.889 62.9434 137.271V132.66H64.0273V139H62.9961L62.9727 138.373ZM67.1504 131.125V132.66H68.334V133.498H67.1504V137.43C67.1504 137.684 67.2031 137.875 67.3086 138.004C67.4141 138.129 67.5938 138.191 67.8477 138.191C67.9727 138.191 68.1445 138.168 68.3633 138.121V139C68.0781 139.078 67.8008 139.117 67.5312 139.117C67.0469 139.117 66.6816 138.971 66.4355 138.678C66.1895 138.385 66.0664 137.969 66.0664 137.43V133.498H64.9121V132.66H66.0664V131.125H67.1504ZM72.2363 139.117C71.377 139.117 70.6777 138.836 70.1387 138.273C69.5996 137.707 69.3301 136.951 69.3301 136.006V135.807C69.3301 135.178 69.4492 134.617 69.6875 134.125C69.9297 133.629 70.2656 133.242 70.6953 132.965C71.1289 132.684 71.5977 132.543 72.1016 132.543C72.9258 132.543 73.5664 132.814 74.0234 133.357C74.4805 133.9 74.709 134.678 74.709 135.689V136.141H70.4141C70.4297 136.766 70.6113 137.271 70.959 137.658C71.3105 138.041 71.7559 138.232 72.2949 138.232C72.6777 138.232 73.002 138.154 73.2676 137.998C73.5332 137.842 73.7656 137.635 73.9648 137.377L74.627 137.893C74.0957 138.709 73.2988 139.117 72.2363 139.117ZM72.1016 133.434C71.6641 133.434 71.2969 133.594 71 133.914C70.7031 134.23 70.5195 134.676 70.4492 135.25H73.625V135.168C73.5938 134.617 73.4453 134.191 73.1797 133.891C72.9141 133.586 72.5547 133.434 72.1016 133.434ZM79.0332 133.633C78.8691 133.605 78.6914 133.592 78.5 133.592C77.7891 133.592 77.3066 133.895 77.0527 134.5V139H75.9688V132.66H77.0234L77.041 133.393C77.3965 132.826 77.9004 132.543 78.5527 132.543C78.7637 132.543 78.9238 132.57 79.0332 132.625V133.633ZM86.0762 133.633C85.9121 133.605 85.7344 133.592 85.543 133.592C84.832 133.592 84.3496 133.895 84.0957 134.5V139H83.0117V132.66H84.0664L84.084 133.393C84.4395 132.826 84.9434 132.543 85.5957 132.543C85.8066 132.543 85.9668 132.57 86.0762 132.625V133.633ZM89.5918 139.117C88.7324 139.117 88.0332 138.836 87.4941 138.273C86.9551 137.707 86.6855 136.951 86.6855 136.006V135.807C86.6855 135.178 86.8047 134.617 87.043 134.125C87.2852 133.629 87.6211 133.242 88.0508 132.965C88.4844 132.684 88.9531 132.543 89.457 132.543C90.2812 132.543 90.9219 132.814 91.3789 133.357C91.8359 133.9 92.0645 134.678 92.0645 135.689V136.141H87.7695C87.7852 136.766 87.9668 137.271 88.3145 137.658C88.666 138.041 89.1113 138.232 89.6504 138.232C90.0332 138.232 90.3574 138.154 90.623 137.998C90.8887 137.842 91.1211 137.635 91.3203 137.377L91.9824 137.893C91.4512 138.709 90.6543 139.117 89.5918 139.117ZM89.457 133.434C89.0195 133.434 88.6523 133.594 88.3555 133.914C88.0586 134.23 87.875 134.676 87.8047 135.25H90.9805V135.168C90.9492 134.617 90.8008 134.191 90.5352 133.891C90.2695 133.586 89.9102 133.434 89.457 133.434ZM94.7949 131.125V132.66H95.9785V133.498H94.7949V137.43C94.7949 137.684 94.8477 137.875 94.9531 138.004C95.0586 138.129 95.2383 138.191 95.4922 138.191C95.6172 138.191 95.7891 138.168 96.0078 138.121V139C95.7227 139.078 95.4453 139.117 95.1758 139.117C94.6914 139.117 94.3262 138.971 94.0801 138.678C93.834 138.385 93.7109 137.969 93.7109 137.43V133.498H92.5566V132.66H93.7109V131.125H94.7949ZM99.8809 139.117C99.0215 139.117 98.3223 138.836 97.7832 138.273C97.2441 137.707 96.9746 136.951 96.9746 136.006V135.807C96.9746 135.178 97.0938 134.617 97.332 134.125C97.5742 133.629 97.9102 133.242 98.3398 132.965C98.7734 132.684 99.2422 132.543 99.7461 132.543C100.57 132.543 101.211 132.814 101.668 133.357C102.125 133.9 102.354 134.678 102.354 135.689V136.141H98.0586C98.0742 136.766 98.2559 137.271 98.6035 137.658C98.9551 138.041 99.4004 138.232 99.9395 138.232C100.322 138.232 100.646 138.154 100.912 137.998C101.178 137.842 101.41 137.635 101.609 137.377L102.271 137.893C101.74 138.709 100.943 139.117 99.8809 139.117ZM99.7461 133.434C99.3086 133.434 98.9414 133.594 98.6445 133.914C98.3477 134.23 98.1641 134.676 98.0938 135.25H101.27V135.168C101.238 134.617 101.09 134.191 100.824 133.891C100.559 133.586 100.199 133.434 99.7461 133.434ZM107.768 139H106.684V130H107.768V139ZM109.221 135.771C109.221 135.15 109.342 134.592 109.584 134.096C109.83 133.6 110.17 133.217 110.604 132.947C111.041 132.678 111.539 132.543 112.098 132.543C112.961 132.543 113.658 132.842 114.189 133.439C114.725 134.037 114.992 134.832 114.992 135.824V135.9C114.992 136.518 114.873 137.072 114.635 137.564C114.4 138.053 114.062 138.434 113.621 138.707C113.184 138.98 112.68 139.117 112.109 139.117C111.25 139.117 110.553 138.818 110.018 138.221C109.486 137.623 109.221 136.832 109.221 135.848V135.771ZM110.311 135.9C110.311 136.604 110.473 137.168 110.797 137.594C111.125 138.02 111.562 138.232 112.109 138.232C112.66 138.232 113.098 138.018 113.422 137.588C113.746 137.154 113.908 136.549 113.908 135.771C113.908 135.076 113.742 134.514 113.41 134.084C113.082 133.65 112.645 133.434 112.098 133.434C111.562 133.434 111.131 133.646 110.803 134.072C110.475 134.498 110.311 135.107 110.311 135.9ZM118.895 138.232C119.281 138.232 119.619 138.115 119.908 137.881C120.197 137.646 120.357 137.354 120.389 137.002H121.414C121.395 137.365 121.27 137.711 121.039 138.039C120.809 138.367 120.5 138.629 120.113 138.824C119.73 139.02 119.324 139.117 118.895 139.117C118.031 139.117 117.344 138.83 116.832 138.256C116.324 137.678 116.07 136.889 116.07 135.889V135.707C116.07 135.09 116.184 134.541 116.41 134.061C116.637 133.58 116.961 133.207 117.383 132.941C117.809 132.676 118.311 132.543 118.889 132.543C119.6 132.543 120.189 132.756 120.658 133.182C121.131 133.607 121.383 134.16 121.414 134.84H120.389C120.357 134.43 120.201 134.094 119.92 133.832C119.643 133.566 119.299 133.434 118.889 133.434C118.338 133.434 117.91 133.633 117.605 134.031C117.305 134.426 117.154 134.998 117.154 135.748V135.953C117.154 136.684 117.305 137.246 117.605 137.641C117.906 138.035 118.336 138.232 118.895 138.232ZM126.547 139C126.484 138.875 126.434 138.652 126.395 138.332C125.891 138.855 125.289 139.117 124.59 139.117C123.965 139.117 123.451 138.941 123.049 138.59C122.65 138.234 122.451 137.785 122.451 137.242C122.451 136.582 122.701 136.07 123.201 135.707C123.705 135.34 124.412 135.156 125.322 135.156H126.377V134.658C126.377 134.279 126.264 133.979 126.037 133.756C125.811 133.529 125.477 133.416 125.035 133.416C124.648 133.416 124.324 133.514 124.062 133.709C123.801 133.904 123.67 134.141 123.67 134.418H122.58C122.58 134.102 122.691 133.797 122.914 133.504C123.141 133.207 123.445 132.973 123.828 132.801C124.215 132.629 124.639 132.543 125.1 132.543C125.83 132.543 126.402 132.727 126.816 133.094C127.23 133.457 127.445 133.959 127.461 134.6V137.518C127.461 138.1 127.535 138.562 127.684 138.906V139H126.547ZM124.748 138.174C125.088 138.174 125.41 138.086 125.715 137.91C126.02 137.734 126.24 137.506 126.377 137.225V135.924H125.527C124.199 135.924 123.535 136.312 123.535 137.09C123.535 137.43 123.648 137.695 123.875 137.887C124.102 138.078 124.393 138.174 124.748 138.174ZM130.338 139H129.254V130H130.338V139ZM134.709 139.117C133.85 139.117 133.15 138.836 132.611 138.273C132.072 137.707 131.803 136.951 131.803 136.006V135.807C131.803 135.178 131.922 134.617 132.16 134.125C132.402 133.629 132.738 133.242 133.168 132.965C133.602 132.684 134.07 132.543 134.574 132.543C135.398 132.543 136.039 132.814 136.496 133.357C136.953 133.9 137.182 134.678 137.182 135.689V136.141H132.887C132.902 136.766 133.084 137.271 133.432 137.658C133.783 138.041 134.229 138.232 134.768 138.232C135.15 138.232 135.475 138.154 135.74 137.998C136.006 137.842 136.238 137.635 136.438 137.377L137.1 137.893C136.568 138.709 135.771 139.117 134.709 139.117ZM134.574 133.434C134.137 133.434 133.77 133.594 133.473 133.914C133.176 134.23 132.992 134.676 132.922 135.25H136.098V135.168C136.066 134.617 135.918 134.191 135.652 133.891C135.387 133.586 135.027 133.434 134.574 133.434Z" fill="black"/>
<path d="M212.119 181.549H210.115V185H208.984V176.469H211.809C212.77 176.469 213.508 176.688 214.023 177.125C214.543 177.562 214.803 178.199 214.803 179.035C214.803 179.566 214.658 180.029 214.369 180.424C214.084 180.818 213.686 181.113 213.174 181.309L215.178 184.93V185H213.971L212.119 181.549ZM210.115 180.629H211.844C212.402 180.629 212.846 180.484 213.174 180.195C213.506 179.906 213.672 179.52 213.672 179.035C213.672 178.508 213.514 178.104 213.197 177.822C212.885 177.541 212.432 177.398 211.838 177.395H210.115V180.629ZM218.846 185.117C217.986 185.117 217.287 184.836 216.748 184.273C216.209 183.707 215.939 182.951 215.939 182.006V181.807C215.939 181.178 216.059 180.617 216.297 180.125C216.539 179.629 216.875 179.242 217.305 178.965C217.738 178.684 218.207 178.543 218.711 178.543C219.535 178.543 220.176 178.814 220.633 179.357C221.09 179.9 221.318 180.678 221.318 181.689V182.141H217.023C217.039 182.766 217.221 183.271 217.568 183.658C217.92 184.041 218.365 184.232 218.904 184.232C219.287 184.232 219.611 184.154 219.877 183.998C220.143 183.842 220.375 183.635 220.574 183.377L221.236 183.893C220.705 184.709 219.908 185.117 218.846 185.117ZM218.711 179.434C218.273 179.434 217.906 179.594 217.609 179.914C217.312 180.23 217.129 180.676 217.059 181.25H220.234V181.168C220.203 180.617 220.055 180.191 219.789 179.891C219.523 179.586 219.164 179.434 218.711 179.434ZM224.049 177.125V178.66H225.232V179.498H224.049V183.43C224.049 183.684 224.102 183.875 224.207 184.004C224.312 184.129 224.492 184.191 224.746 184.191C224.871 184.191 225.043 184.168 225.262 184.121V185C224.977 185.078 224.699 185.117 224.43 185.117C223.945 185.117 223.58 184.971 223.334 184.678C223.088 184.385 222.965 183.969 222.965 183.43V179.498H221.811V178.66H222.965V177.125H224.049ZM229.135 185.117C228.275 185.117 227.576 184.836 227.037 184.273C226.498 183.707 226.229 182.951 226.229 182.006V181.807C226.229 181.178 226.348 180.617 226.586 180.125C226.828 179.629 227.164 179.242 227.594 178.965C228.027 178.684 228.496 178.543 229 178.543C229.824 178.543 230.465 178.814 230.922 179.357C231.379 179.9 231.607 180.678 231.607 181.689V182.141H227.312C227.328 182.766 227.51 183.271 227.857 183.658C228.209 184.041 228.654 184.232 229.193 184.232C229.576 184.232 229.9 184.154 230.166 183.998C230.432 183.842 230.664 183.635 230.863 183.377L231.525 183.893C230.994 184.709 230.197 185.117 229.135 185.117ZM229 179.434C228.562 179.434 228.195 179.594 227.898 179.914C227.602 180.23 227.418 180.676 227.348 181.25H230.523V181.168C230.492 180.617 230.344 180.191 230.078 179.891C229.812 179.586 229.453 179.434 229 179.434ZM237.021 185H235.938V176H237.021V185ZM238.475 181.771C238.475 181.15 238.596 180.592 238.838 180.096C239.084 179.6 239.424 179.217 239.857 178.947C240.295 178.678 240.793 178.543 241.352 178.543C242.215 178.543 242.912 178.842 243.443 179.439C243.979 180.037 244.246 180.832 244.246 181.824V181.9C244.246 182.518 244.127 183.072 243.889 183.564C243.654 184.053 243.316 184.434 242.875 184.707C242.438 184.98 241.934 185.117 241.363 185.117C240.504 185.117 239.807 184.818 239.271 184.221C238.74 183.623 238.475 182.832 238.475 181.848V181.771ZM239.564 181.9C239.564 182.604 239.727 183.168 240.051 183.594C240.379 184.02 240.816 184.232 241.363 184.232C241.914 184.232 242.352 184.018 242.676 183.588C243 183.154 243.162 182.549 243.162 181.771C243.162 181.076 242.996 180.514 242.664 180.084C242.336 179.65 241.898 179.434 241.352 179.434C240.816 179.434 240.385 179.646 240.057 180.072C239.729 180.498 239.564 181.107 239.564 181.9ZM248.148 184.232C248.535 184.232 248.873 184.115 249.162 183.881C249.451 183.646 249.611 183.354 249.643 183.002H250.668C250.648 183.365 250.523 183.711 250.293 184.039C250.062 184.367 249.754 184.629 249.367 184.824C248.984 185.02 248.578 185.117 248.148 185.117C247.285 185.117 246.598 184.83 246.086 184.256C245.578 183.678 245.324 182.889 245.324 181.889V181.707C245.324 181.09 245.438 180.541 245.664 180.061C245.891 179.58 246.215 179.207 246.637 178.941C247.062 178.676 247.564 178.543 248.143 178.543C248.854 178.543 249.443 178.756 249.912 179.182C250.385 179.607 250.637 180.16 250.668 180.84H249.643C249.611 180.43 249.455 180.094 249.174 179.832C248.896 179.566 248.553 179.434 248.143 179.434C247.592 179.434 247.164 179.633 246.859 180.031C246.559 180.426 246.408 180.998 246.408 181.748V181.953C246.408 182.684 246.559 183.246 246.859 183.641C247.16 184.035 247.59 184.232 248.148 184.232ZM255.801 185C255.738 184.875 255.688 184.652 255.648 184.332C255.145 184.855 254.543 185.117 253.844 185.117C253.219 185.117 252.705 184.941 252.303 184.59C251.904 184.234 251.705 183.785 251.705 183.242C251.705 182.582 251.955 182.07 252.455 181.707C252.959 181.34 253.666 181.156 254.576 181.156H255.631V180.658C255.631 180.279 255.518 179.979 255.291 179.756C255.064 179.529 254.73 179.416 254.289 179.416C253.902 179.416 253.578 179.514 253.316 179.709C253.055 179.904 252.924 180.141 252.924 180.418H251.834C251.834 180.102 251.945 179.797 252.168 179.504C252.395 179.207 252.699 178.973 253.082 178.801C253.469 178.629 253.893 178.543 254.354 178.543C255.084 178.543 255.656 178.727 256.07 179.094C256.484 179.457 256.699 179.959 256.715 180.6V183.518C256.715 184.1 256.789 184.562 256.938 184.906V185H255.801ZM254.002 184.174C254.342 184.174 254.664 184.086 254.969 183.91C255.273 183.734 255.494 183.506 255.631 183.225V181.924H254.781C253.453 181.924 252.789 182.312 252.789 183.09C252.789 183.43 252.902 183.695 253.129 183.887C253.355 184.078 253.646 184.174 254.002 184.174ZM259.592 185H258.508V176H259.592V185ZM263.963 185.117C263.104 185.117 262.404 184.836 261.865 184.273C261.326 183.707 261.057 182.951 261.057 182.006V181.807C261.057 181.178 261.176 180.617 261.414 180.125C261.656 179.629 261.992 179.242 262.422 178.965C262.855 178.684 263.324 178.543 263.828 178.543C264.652 178.543 265.293 178.814 265.75 179.357C266.207 179.9 266.436 180.678 266.436 181.689V182.141H262.141C262.156 182.766 262.338 183.271 262.686 183.658C263.037 184.041 263.482 184.232 264.021 184.232C264.404 184.232 264.729 184.154 264.994 183.998C265.26 183.842 265.492 183.635 265.691 183.377L266.354 183.893C265.822 184.709 265.025 185.117 263.963 185.117ZM263.828 179.434C263.391 179.434 263.023 179.594 262.727 179.914C262.43 180.23 262.246 180.676 262.176 181.25H265.352V181.168C265.32 180.617 265.172 180.191 264.906 179.891C264.641 179.586 264.281 179.434 263.828 179.434Z" fill="black"/>
<path d="M505.119 254.549H503.115V258H501.984V249.469H504.809C505.77 249.469 506.508 249.688 507.023 250.125C507.543 250.562 507.803 251.199 507.803 252.035C507.803 252.566 507.658 253.029 507.369 253.424C507.084 253.818 506.686 254.113 506.174 254.309L508.178 257.93V258H506.971L505.119 254.549ZM503.115 253.629H504.844C505.402 253.629 505.846 253.484 506.174 253.195C506.506 252.906 506.672 252.52 506.672 252.035C506.672 251.508 506.514 251.104 506.197 250.822C505.885 250.541 505.432 250.398 504.838 250.395H503.115V253.629ZM511.846 258.117C510.986 258.117 510.287 257.836 509.748 257.273C509.209 256.707 508.939 255.951 508.939 255.006V254.807C508.939 254.178 509.059 253.617 509.297 253.125C509.539 252.629 509.875 252.242 510.305 251.965C510.738 251.684 511.207 251.543 511.711 251.543C512.535 251.543 513.176 251.814 513.633 252.357C514.09 252.9 514.318 253.678 514.318 254.689V255.141H510.023C510.039 255.766 510.221 256.271 510.568 256.658C510.92 257.041 511.365 257.232 511.904 257.232C512.287 257.232 512.611 257.154 512.877 256.998C513.143 256.842 513.375 256.635 513.574 256.377L514.236 256.893C513.705 257.709 512.908 258.117 511.846 258.117ZM511.711 252.434C511.273 252.434 510.906 252.594 510.609 252.914C510.312 253.23 510.129 253.676 510.059 254.25H513.234V254.168C513.203 253.617 513.055 253.191 512.789 252.891C512.523 252.586 512.164 252.434 511.711 252.434ZM517.049 250.125V251.66H518.232V252.498H517.049V256.43C517.049 256.684 517.102 256.875 517.207 257.004C517.312 257.129 517.492 257.191 517.746 257.191C517.871 257.191 518.043 257.168 518.262 257.121V258C517.977 258.078 517.699 258.117 517.43 258.117C516.945 258.117 516.58 257.971 516.334 257.678C516.088 257.385 515.965 256.969 515.965 256.43V252.498H514.811V251.66H515.965V250.125H517.049ZM522.135 258.117C521.275 258.117 520.576 257.836 520.037 257.273C519.498 256.707 519.229 255.951 519.229 255.006V254.807C519.229 254.178 519.348 253.617 519.586 253.125C519.828 252.629 520.164 252.242 520.594 251.965C521.027 251.684 521.496 251.543 522 251.543C522.824 251.543 523.465 251.814 523.922 252.357C524.379 252.9 524.607 253.678 524.607 254.689V255.141H520.312C520.328 255.766 520.51 256.271 520.857 256.658C521.209 257.041 521.654 257.232 522.193 257.232C522.576 257.232 522.9 257.154 523.166 256.998C523.432 256.842 523.664 256.635 523.863 256.377L524.525 256.893C523.994 257.709 523.197 258.117 522.135 258.117ZM522 252.434C521.562 252.434 521.195 252.594 520.898 252.914C520.602 253.23 520.418 253.676 520.348 254.25H523.523V254.168C523.492 253.617 523.344 253.191 523.078 252.891C522.812 252.586 522.453 252.434 522 252.434ZM535.57 258H534.439V254.057H530.139V258H529.014V249.469H530.139V253.137H534.439V249.469H535.57V258ZM537.111 254.771C537.111 254.15 537.232 253.592 537.475 253.096C537.721 252.6 538.061 252.217 538.494 251.947C538.932 251.678 539.43 251.543 539.988 251.543C540.852 251.543 541.549 251.842 542.08 252.439C542.615 253.037 542.883 253.832 542.883 254.824V254.9C542.883 255.518 542.764 256.072 542.525 256.564C542.291 257.053 541.953 257.434 541.512 257.707C541.074 257.98 540.57 258.117 540 258.117C539.141 258.117 538.443 257.818 537.908 257.221C537.377 256.623 537.111 255.832 537.111 254.848V254.771ZM538.201 254.9C538.201 255.604 538.363 256.168 538.688 256.594C539.016 257.02 539.453 257.232 540 257.232C540.551 257.232 540.988 257.018 541.312 256.588C541.637 256.154 541.799 255.549 541.799 254.771C541.799 254.076 541.633 253.514 541.301 253.084C540.973 252.65 540.535 252.434 539.988 252.434C539.453 252.434 539.021 252.646 538.693 253.072C538.365 253.498 538.201 254.107 538.201 254.9ZM547.934 256.318C547.934 256.025 547.822 255.799 547.6 255.639C547.381 255.475 546.996 255.334 546.445 255.217C545.898 255.1 545.463 254.959 545.139 254.795C544.818 254.631 544.58 254.436 544.424 254.209C544.271 253.982 544.195 253.713 544.195 253.4C544.195 252.881 544.414 252.441 544.852 252.082C545.293 251.723 545.855 251.543 546.539 251.543C547.258 251.543 547.84 251.729 548.285 252.1C548.734 252.471 548.959 252.945 548.959 253.523H547.869C547.869 253.227 547.742 252.971 547.488 252.756C547.238 252.541 546.922 252.434 546.539 252.434C546.145 252.434 545.836 252.52 545.613 252.691C545.391 252.863 545.279 253.088 545.279 253.365C545.279 253.627 545.383 253.824 545.59 253.957C545.797 254.09 546.17 254.217 546.709 254.338C547.252 254.459 547.691 254.604 548.027 254.771C548.363 254.939 548.611 255.143 548.771 255.381C548.936 255.615 549.018 255.902 549.018 256.242C549.018 256.809 548.791 257.264 548.338 257.607C547.885 257.947 547.297 258.117 546.574 258.117C546.066 258.117 545.617 258.027 545.227 257.848C544.836 257.668 544.529 257.418 544.307 257.098C544.088 256.773 543.979 256.424 543.979 256.049H545.062C545.082 256.412 545.227 256.701 545.496 256.916C545.77 257.127 546.129 257.232 546.574 257.232C546.984 257.232 547.312 257.15 547.559 256.986C547.809 256.818 547.934 256.596 547.934 256.318ZM551.9 250.125V251.66H553.084V252.498H551.9V256.43C551.9 256.684 551.953 256.875 552.059 257.004C552.164 257.129 552.344 257.191 552.598 257.191C552.723 257.191 552.895 257.168 553.113 257.121V258C552.828 258.078 552.551 258.117 552.281 258.117C551.797 258.117 551.432 257.971 551.186 257.678C550.939 257.385 550.816 256.969 550.816 256.43V252.498H549.662V251.66H550.816V250.125H551.9ZM558.27 258C558.207 257.875 558.156 257.652 558.117 257.332C557.613 257.855 557.012 258.117 556.312 258.117C555.688 258.117 555.174 257.941 554.771 257.59C554.373 257.234 554.174 256.785 554.174 256.242C554.174 255.582 554.424 255.07 554.924 254.707C555.428 254.34 556.135 254.156 557.045 254.156H558.1V253.658C558.1 253.279 557.986 252.979 557.76 252.756C557.533 252.529 557.199 252.416 556.758 252.416C556.371 252.416 556.047 252.514 555.785 252.709C555.523 252.904 555.393 253.141 555.393 253.418H554.303C554.303 253.102 554.414 252.797 554.637 252.504C554.863 252.207 555.168 251.973 555.551 251.801C555.938 251.629 556.361 251.543 556.822 251.543C557.553 251.543 558.125 251.727 558.539 252.094C558.953 252.457 559.168 252.959 559.184 253.6V256.518C559.184 257.1 559.258 257.562 559.406 257.906V258H558.27ZM556.471 257.174C556.811 257.174 557.133 257.086 557.438 256.91C557.742 256.734 557.963 256.506 558.1 256.225V254.924H557.25C555.922 254.924 555.258 255.312 555.258 256.09C555.258 256.43 555.371 256.695 555.598 256.887C555.824 257.078 556.115 257.174 556.471 257.174ZM566.238 254.9C566.238 255.865 566.018 256.643 565.576 257.232C565.135 257.822 564.537 258.117 563.783 258.117C563.014 258.117 562.408 257.873 561.967 257.385V260.438H560.883V251.66H561.873L561.926 252.363C562.367 251.816 562.98 251.543 563.766 251.543C564.527 251.543 565.129 251.83 565.57 252.404C566.016 252.979 566.238 253.777 566.238 254.801V254.9ZM565.154 254.777C565.154 254.062 565.002 253.498 564.697 253.084C564.393 252.67 563.975 252.463 563.443 252.463C562.787 252.463 562.295 252.754 561.967 253.336V256.365C562.291 256.943 562.787 257.232 563.455 257.232C563.975 257.232 564.387 257.027 564.691 256.617C565 256.203 565.154 255.59 565.154 254.777ZM567.357 254.777C567.357 253.805 567.588 253.023 568.049 252.434C568.51 251.84 569.113 251.543 569.859 251.543C570.602 251.543 571.189 251.797 571.623 252.305V249H572.707V258H571.711L571.658 257.32C571.225 257.852 570.621 258.117 569.848 258.117C569.113 258.117 568.514 257.816 568.049 257.215C567.588 256.613 567.357 255.828 567.357 254.859V254.777ZM568.441 254.9C568.441 255.619 568.59 256.182 568.887 256.588C569.184 256.994 569.594 257.197 570.117 257.197C570.805 257.197 571.307 256.889 571.623 256.271V253.359C571.299 252.762 570.801 252.463 570.129 252.463C569.598 252.463 569.184 252.668 568.887 253.078C568.59 253.488 568.441 254.096 568.441 254.9Z" fill="black"/>
<path d="M354.119 218.549H352.115V222H350.984V213.469H353.809C354.77 213.469 355.508 213.688 356.023 214.125C356.543 214.562 356.803 215.199 356.803 216.035C356.803 216.566 356.658 217.029 356.369 217.424C356.084 217.818 355.686 218.113 355.174 218.309L357.178 221.93V222H355.971L354.119 218.549ZM352.115 217.629H353.844C354.402 217.629 354.846 217.484 355.174 217.195C355.506 216.906 355.672 216.52 355.672 216.035C355.672 215.508 355.514 215.104 355.197 214.822C354.885 214.541 354.432 214.398 353.838 214.395H352.115V217.629ZM362.129 222C362.066 221.875 362.016 221.652 361.977 221.332C361.473 221.855 360.871 222.117 360.172 222.117C359.547 222.117 359.033 221.941 358.631 221.59C358.232 221.234 358.033 220.785 358.033 220.242C358.033 219.582 358.283 219.07 358.783 218.707C359.287 218.34 359.994 218.156 360.904 218.156H361.959V217.658C361.959 217.279 361.846 216.979 361.619 216.756C361.393 216.529 361.059 216.416 360.617 216.416C360.23 216.416 359.906 216.514 359.645 216.709C359.383 216.904 359.252 217.141 359.252 217.418H358.162C358.162 217.102 358.273 216.797 358.496 216.504C358.723 216.207 359.027 215.973 359.41 215.801C359.797 215.629 360.221 215.543 360.682 215.543C361.412 215.543 361.984 215.727 362.398 216.094C362.812 216.457 363.027 216.959 363.043 217.6V220.518C363.043 221.1 363.117 221.562 363.266 221.906V222H362.129ZM360.33 221.174C360.67 221.174 360.992 221.086 361.297 220.91C361.602 220.734 361.822 220.506 361.959 220.225V218.924H361.109C359.781 218.924 359.117 219.312 359.117 220.09C359.117 220.43 359.23 220.695 359.457 220.887C359.684 221.078 359.975 221.174 360.33 221.174ZM368.434 220.318C368.434 220.025 368.322 219.799 368.1 219.639C367.881 219.475 367.496 219.334 366.945 219.217C366.398 219.1 365.963 218.959 365.639 218.795C365.318 218.631 365.08 218.436 364.924 218.209C364.771 217.982 364.695 217.713 364.695 217.4C364.695 216.881 364.914 216.441 365.352 216.082C365.793 215.723 366.355 215.543 367.039 215.543C367.758 215.543 368.34 215.729 368.785 216.1C369.234 216.471 369.459 216.945 369.459 217.523H368.369C368.369 217.227 368.242 216.971 367.988 216.756C367.738 216.541 367.422 216.434 367.039 216.434C366.645 216.434 366.336 216.52 366.113 216.691C365.891 216.863 365.779 217.088 365.779 217.365C365.779 217.627 365.883 217.824 366.09 217.957C366.297 218.09 366.67 218.217 367.209 218.338C367.752 218.459 368.191 218.604 368.527 218.771C368.863 218.939 369.111 219.143 369.271 219.381C369.436 219.615 369.518 219.902 369.518 220.242C369.518 220.809 369.291 221.264 368.838 221.607C368.385 221.947 367.797 222.117 367.074 222.117C366.566 222.117 366.117 222.027 365.727 221.848C365.336 221.668 365.029 221.418 364.807 221.098C364.588 220.773 364.479 220.424 364.479 220.049H365.562C365.582 220.412 365.727 220.701 365.996 220.916C366.27 221.127 366.629 221.232 367.074 221.232C367.484 221.232 367.812 221.15 368.059 220.986C368.309 220.818 368.434 220.596 368.434 220.318ZM376.285 218.9C376.285 219.865 376.064 220.643 375.623 221.232C375.182 221.822 374.584 222.117 373.83 222.117C373.061 222.117 372.455 221.873 372.014 221.385V224.438H370.93V215.66H371.92L371.973 216.363C372.414 215.816 373.027 215.543 373.812 215.543C374.574 215.543 375.176 215.83 375.617 216.404C376.062 216.979 376.285 217.777 376.285 218.801V218.9ZM375.201 218.777C375.201 218.062 375.049 217.498 374.744 217.084C374.439 216.67 374.021 216.463 373.49 216.463C372.834 216.463 372.342 216.754 372.014 217.336V220.365C372.338 220.943 372.834 221.232 373.502 221.232C374.021 221.232 374.434 221.027 374.738 220.617C375.047 220.203 375.201 219.59 375.201 218.777ZM383.035 218.9C383.035 219.869 382.812 220.648 382.367 221.238C381.922 221.824 381.324 222.117 380.574 222.117C379.773 222.117 379.154 221.834 378.717 221.268L378.664 222H377.668V213H378.752V216.357C379.189 215.814 379.793 215.543 380.562 215.543C381.332 215.543 381.936 215.834 382.373 216.416C382.814 216.998 383.035 217.795 383.035 218.807V218.9ZM381.951 218.777C381.951 218.039 381.809 217.469 381.523 217.066C381.238 216.664 380.828 216.463 380.293 216.463C379.578 216.463 379.064 216.795 378.752 217.459V220.201C379.084 220.865 379.602 221.197 380.305 221.197C380.824 221.197 381.229 220.996 381.518 220.594C381.807 220.191 381.951 219.586 381.951 218.777ZM387.037 222.117C386.178 222.117 385.479 221.836 384.939 221.273C384.4 220.707 384.131 219.951 384.131 219.006V218.807C384.131 218.178 384.25 217.617 384.488 217.125C384.73 216.629 385.066 216.242 385.496 215.965C385.93 215.684 386.398 215.543 386.902 215.543C387.727 215.543 388.367 215.814 388.824 216.357C389.281 216.9 389.51 217.678 389.51 218.689V219.141H385.215C385.23 219.766 385.412 220.271 385.76 220.658C386.111 221.041 386.557 221.232 387.096 221.232C387.479 221.232 387.803 221.154 388.068 220.998C388.334 220.842 388.566 220.635 388.766 220.377L389.428 220.893C388.896 221.709 388.1 222.117 387.037 222.117ZM386.902 216.434C386.465 216.434 386.098 216.594 385.801 216.914C385.504 217.23 385.32 217.676 385.25 218.25H388.426V218.168C388.395 217.617 388.246 217.191 387.98 216.891C387.715 216.586 387.355 216.434 386.902 216.434ZM393.834 216.633C393.67 216.605 393.492 216.592 393.301 216.592C392.59 216.592 392.107 216.895 391.854 217.5V222H390.77V215.66H391.824L391.842 216.393C392.197 215.826 392.701 215.543 393.354 215.543C393.564 215.543 393.725 215.57 393.834 215.625V216.633ZM397.9 216.633C397.736 216.605 397.559 216.592 397.367 216.592C396.656 216.592 396.174 216.895 395.92 217.5V222H394.836V215.66H395.891L395.908 216.393C396.264 215.826 396.768 215.543 397.42 215.543C397.631 215.543 397.791 215.57 397.9 215.625V216.633ZM401.082 220.412L402.559 215.66H403.719L401.17 222.979C400.775 224.033 400.148 224.561 399.289 224.561L399.084 224.543L398.68 224.467V223.588L398.973 223.611C399.34 223.611 399.625 223.537 399.828 223.389C400.035 223.24 400.205 222.969 400.338 222.574L400.578 221.93L398.316 215.66H399.5L401.082 220.412ZM408.963 218.66V222H407.838V213.469H410.984C411.918 213.469 412.648 213.707 413.176 214.184C413.707 214.66 413.973 215.291 413.973 216.076C413.973 216.904 413.713 217.543 413.193 217.992C412.678 218.438 411.938 218.66 410.973 218.66H408.963ZM408.963 217.74H410.984C411.586 217.74 412.047 217.6 412.367 217.318C412.688 217.033 412.848 216.623 412.848 216.088C412.848 215.58 412.688 215.174 412.367 214.869C412.047 214.564 411.607 214.406 411.049 214.395H408.963V217.74ZM416.416 222H415.332V215.66H416.416V222ZM415.244 213.979C415.244 213.803 415.297 213.654 415.402 213.533C415.512 213.412 415.672 213.352 415.883 213.352C416.094 213.352 416.254 213.412 416.363 213.533C416.473 213.654 416.527 213.803 416.527 213.979C416.527 214.154 416.473 214.301 416.363 214.418C416.254 214.535 416.094 214.594 415.883 214.594C415.672 214.594 415.512 214.535 415.402 214.418C415.297 214.301 415.244 214.154 415.244 213.979Z" fill="black"/>
<path d="M420.197 192H419.072V183.469H420.197V192ZM423.385 188.66V192H422.26V183.469H425.406C426.34 183.469 427.07 183.707 427.598 184.184C428.129 184.66 428.395 185.291 428.395 186.076C428.395 186.904 428.135 187.543 427.615 187.992C427.1 188.438 426.359 188.66 425.395 188.66H423.385ZM423.385 187.74H425.406C426.008 187.74 426.469 187.6 426.789 187.318C427.109 187.033 427.27 186.623 427.27 186.088C427.27 185.58 427.109 185.174 426.789 184.869C426.469 184.564 426.029 184.406 425.471 184.395H423.385V187.74ZM435.701 186.633C435.537 186.605 435.359 186.592 435.168 186.592C434.457 186.592 433.975 186.895 433.721 187.5V192H432.637V185.66H433.691L433.709 186.393C434.064 185.826 434.568 185.543 435.221 185.543C435.432 185.543 435.592 185.57 435.701 185.625V186.633ZM439.217 192.117C438.357 192.117 437.658 191.836 437.119 191.273C436.58 190.707 436.311 189.951 436.311 189.006V188.807C436.311 188.178 436.43 187.617 436.668 187.125C436.91 186.629 437.246 186.242 437.676 185.965C438.109 185.684 438.578 185.543 439.082 185.543C439.906 185.543 440.547 185.814 441.004 186.357C441.461 186.9 441.689 187.678 441.689 188.689V189.141H437.395C437.41 189.766 437.592 190.271 437.939 190.658C438.291 191.041 438.736 191.232 439.275 191.232C439.658 191.232 439.982 191.154 440.248 190.998C440.514 190.842 440.746 190.635 440.945 190.377L441.607 190.893C441.076 191.709 440.279 192.117 439.217 192.117ZM439.082 186.434C438.645 186.434 438.277 186.594 437.98 186.914C437.684 187.23 437.5 187.676 437.43 188.25H440.605V188.168C440.574 187.617 440.426 187.191 440.16 186.891C439.895 186.586 439.535 186.434 439.082 186.434ZM444.42 184.125V185.66H445.604V186.498H444.42V190.43C444.42 190.684 444.473 190.875 444.578 191.004C444.684 191.129 444.863 191.191 445.117 191.191C445.242 191.191 445.414 191.168 445.633 191.121V192C445.348 192.078 445.07 192.117 444.801 192.117C444.316 192.117 443.951 191.971 443.705 191.678C443.459 191.385 443.336 190.969 443.336 190.43V186.498H442.182V185.66H443.336V184.125H444.42ZM449.506 192.117C448.646 192.117 447.947 191.836 447.408 191.273C446.869 190.707 446.6 189.951 446.6 189.006V188.807C446.6 188.178 446.719 187.617 446.957 187.125C447.199 186.629 447.535 186.242 447.965 185.965C448.398 185.684 448.867 185.543 449.371 185.543C450.195 185.543 450.836 185.814 451.293 186.357C451.75 186.9 451.979 187.678 451.979 188.689V189.141H447.684C447.699 189.766 447.881 190.271 448.229 190.658C448.58 191.041 449.025 191.232 449.564 191.232C449.947 191.232 450.271 191.154 450.537 190.998C450.803 190.842 451.035 190.635 451.234 190.377L451.896 190.893C451.365 191.709 450.568 192.117 449.506 192.117ZM449.371 186.434C448.934 186.434 448.566 186.594 448.27 186.914C447.973 187.23 447.789 187.676 447.719 188.25H450.895V188.168C450.863 187.617 450.715 187.191 450.449 186.891C450.184 186.586 449.824 186.434 449.371 186.434ZM462.941 192H461.811V188.057H457.51V192H456.385V183.469H457.51V187.137H461.811V183.469H462.941V192ZM464.482 188.771C464.482 188.15 464.604 187.592 464.846 187.096C465.092 186.6 465.432 186.217 465.865 185.947C466.303 185.678 466.801 185.543 467.359 185.543C468.223 185.543 468.92 185.842 469.451 186.439C469.986 187.037 470.254 187.832 470.254 188.824V188.9C470.254 189.518 470.135 190.072 469.896 190.564C469.662 191.053 469.324 191.434 468.883 191.707C468.445 191.98 467.941 192.117 467.371 192.117C466.512 192.117 465.814 191.818 465.279 191.221C464.748 190.623 464.482 189.832 464.482 188.848V188.771ZM465.572 188.9C465.572 189.604 465.734 190.168 466.059 190.594C466.387 191.02 466.824 191.232 467.371 191.232C467.922 191.232 468.359 191.018 468.684 190.588C469.008 190.154 469.17 189.549 469.17 188.771C469.17 188.076 469.004 187.514 468.672 187.084C468.344 186.65 467.906 186.434 467.359 186.434C466.824 186.434 466.393 186.646 466.064 187.072C465.736 187.498 465.572 188.107 465.572 188.9ZM475.305 190.318C475.305 190.025 475.193 189.799 474.971 189.639C474.752 189.475 474.367 189.334 473.816 189.217C473.27 189.1 472.834 188.959 472.51 188.795C472.189 188.631 471.951 188.436 471.795 188.209C471.643 187.982 471.566 187.713 471.566 187.4C471.566 186.881 471.785 186.441 472.223 186.082C472.664 185.723 473.227 185.543 473.91 185.543C474.629 185.543 475.211 185.729 475.656 186.1C476.105 186.471 476.33 186.945 476.33 187.523H475.24C475.24 187.227 475.113 186.971 474.859 186.756C474.609 186.541 474.293 186.434 473.91 186.434C473.516 186.434 473.207 186.52 472.984 186.691C472.762 186.863 472.65 187.088 472.65 187.365C472.65 187.627 472.754 187.824 472.961 187.957C473.168 188.09 473.541 188.217 474.08 188.338C474.623 188.459 475.062 188.604 475.398 188.771C475.734 188.939 475.982 189.143 476.143 189.381C476.307 189.615 476.389 189.902 476.389 190.242C476.389 190.809 476.162 191.264 475.709 191.607C475.256 191.947 474.668 192.117 473.945 192.117C473.438 192.117 472.988 192.027 472.598 191.848C472.207 191.668 471.9 191.418 471.678 191.098C471.459 190.773 471.35 190.424 471.35 190.049H472.434C472.453 190.412 472.598 190.701 472.867 190.916C473.141 191.127 473.5 191.232 473.945 191.232C474.355 191.232 474.684 191.15 474.93 190.986C475.18 190.818 475.305 190.596 475.305 190.318ZM479.271 184.125V185.66H480.455V186.498H479.271V190.43C479.271 190.684 479.324 190.875 479.43 191.004C479.535 191.129 479.715 191.191 479.969 191.191C480.094 191.191 480.266 191.168 480.484 191.121V192C480.199 192.078 479.922 192.117 479.652 192.117C479.168 192.117 478.803 191.971 478.557 191.678C478.311 191.385 478.188 190.969 478.188 190.43V186.498H477.033V185.66H478.188V184.125H479.271ZM485.641 192C485.578 191.875 485.527 191.652 485.488 191.332C484.984 191.855 484.383 192.117 483.684 192.117C483.059 192.117 482.545 191.941 482.143 191.59C481.744 191.234 481.545 190.785 481.545 190.242C481.545 189.582 481.795 189.07 482.295 188.707C482.799 188.34 483.506 188.156 484.416 188.156H485.471V187.658C485.471 187.279 485.357 186.979 485.131 186.756C484.904 186.529 484.57 186.416 484.129 186.416C483.742 186.416 483.418 186.514 483.156 186.709C482.895 186.904 482.764 187.141 482.764 187.418H481.674C481.674 187.102 481.785 186.797 482.008 186.504C482.234 186.207 482.539 185.973 482.922 185.801C483.309 185.629 483.732 185.543 484.193 185.543C484.924 185.543 485.496 185.727 485.91 186.094C486.324 186.457 486.539 186.959 486.555 187.6V190.518C486.555 191.1 486.629 191.562 486.777 191.906V192H485.641ZM483.842 191.174C484.182 191.174 484.504 191.086 484.809 190.91C485.113 190.734 485.334 190.506 485.471 190.225V188.924H484.621C483.293 188.924 482.629 189.312 482.629 190.09C482.629 190.43 482.742 190.695 482.969 190.887C483.195 191.078 483.486 191.174 483.842 191.174ZM493.609 188.9C493.609 189.865 493.389 190.643 492.947 191.232C492.506 191.822 491.908 192.117 491.154 192.117C490.385 192.117 489.779 191.873 489.338 191.385V194.438H488.254V185.66H489.244L489.297 186.363C489.738 185.816 490.352 185.543 491.137 185.543C491.898 185.543 492.5 185.83 492.941 186.404C493.387 186.979 493.609 187.777 493.609 188.801V188.9ZM492.525 188.777C492.525 188.062 492.373 187.498 492.068 187.084C491.764 186.67 491.346 186.463 490.814 186.463C490.158 186.463 489.666 186.754 489.338 187.336V190.365C489.662 190.943 490.158 191.232 490.826 191.232C491.346 191.232 491.758 191.027 492.062 190.617C492.371 190.203 492.525 189.59 492.525 188.777ZM494.729 188.777C494.729 187.805 494.959 187.023 495.42 186.434C495.881 185.84 496.484 185.543 497.23 185.543C497.973 185.543 498.561 185.797 498.994 186.305V183H500.078V192H499.082L499.029 191.32C498.596 191.852 497.992 192.117 497.219 192.117C496.484 192.117 495.885 191.816 495.42 191.215C494.959 190.613 494.729 189.828 494.729 188.859V188.777ZM495.812 188.9C495.812 189.619 495.961 190.182 496.258 190.588C496.555 190.994 496.965 191.197 497.488 191.197C498.176 191.197 498.678 190.889 498.994 190.271V187.359C498.67 186.762 498.172 186.463 497.5 186.463C496.969 186.463 496.555 186.668 496.258 187.078C495.961 187.488 495.812 188.096 495.812 188.9ZM418.779 202.537C418.779 201.654 418.896 200.807 419.131 199.994C419.369 199.182 419.723 198.443 420.191 197.779C420.66 197.115 421.146 196.646 421.65 196.373L421.873 197.088C421.303 197.525 420.834 198.193 420.467 199.092C420.104 199.99 419.904 200.996 419.869 202.109L419.863 202.607C419.863 204.115 420.139 205.424 420.689 206.533C421.021 207.197 421.416 207.717 421.873 208.092L421.65 208.754C421.131 208.465 420.635 207.98 420.162 207.301C419.24 205.973 418.779 204.385 418.779 202.537ZM424.1 206H423.016V199.66H424.1V206ZM422.928 197.979C422.928 197.803 422.98 197.654 423.086 197.533C423.195 197.412 423.355 197.352 423.566 197.352C423.777 197.352 423.938 197.412 424.047 197.533C424.156 197.654 424.211 197.803 424.211 197.979C424.211 198.154 424.156 198.301 424.047 198.418C423.938 198.535 423.777 198.594 423.566 198.594C423.355 198.594 423.195 198.535 423.086 198.418C422.98 198.301 422.928 198.154 422.928 197.979ZM426.865 199.66L426.9 200.457C427.385 199.848 428.018 199.543 428.799 199.543C430.139 199.543 430.814 200.299 430.826 201.811V206H429.742V201.805C429.738 201.348 429.633 201.01 429.426 200.791C429.223 200.572 428.904 200.463 428.471 200.463C428.119 200.463 427.811 200.557 427.545 200.744C427.279 200.932 427.072 201.178 426.924 201.482V206H425.84V199.66H426.865ZM433.932 198.125V199.66H435.115V200.498H433.932V204.43C433.932 204.684 433.984 204.875 434.09 205.004C434.195 205.129 434.375 205.191 434.629 205.191C434.754 205.191 434.926 205.168 435.145 205.121V206C434.859 206.078 434.582 206.117 434.312 206.117C433.828 206.117 433.463 205.971 433.217 205.678C432.971 205.385 432.848 204.969 432.848 204.43V200.498H431.693V199.66H432.848V198.125H433.932ZM439.018 206.117C438.158 206.117 437.459 205.836 436.92 205.273C436.381 204.707 436.111 203.951 436.111 203.006V202.807C436.111 202.178 436.23 201.617 436.469 201.125C436.711 200.629 437.047 200.242 437.477 199.965C437.91 199.684 438.379 199.543 438.883 199.543C439.707 199.543 440.348 199.814 440.805 200.357C441.262 200.9 441.49 201.678 441.49 202.689V203.141H437.195C437.211 203.766 437.393 204.271 437.74 204.658C438.092 205.041 438.537 205.232 439.076 205.232C439.459 205.232 439.783 205.154 440.049 204.998C440.314 204.842 440.547 204.635 440.746 204.377L441.408 204.893C440.877 205.709 440.08 206.117 439.018 206.117ZM438.883 200.434C438.445 200.434 438.078 200.594 437.781 200.914C437.484 201.23 437.301 201.676 437.23 202.25H440.406V202.168C440.375 201.617 440.227 201.191 439.961 200.891C439.695 200.586 439.336 200.434 438.883 200.434ZM445.814 200.633C445.65 200.605 445.473 200.592 445.281 200.592C444.57 200.592 444.088 200.895 443.834 201.5V206H442.75V199.66H443.805L443.822 200.393C444.178 199.826 444.682 199.543 445.334 199.543C445.545 199.543 445.705 199.57 445.814 199.625V200.633ZM447.443 206V200.498H446.441V199.66H447.443V199.01C447.443 198.33 447.625 197.805 447.988 197.434C448.352 197.062 448.865 196.877 449.529 196.877C449.779 196.877 450.027 196.91 450.273 196.977L450.215 197.855C450.031 197.82 449.836 197.803 449.629 197.803C449.277 197.803 449.006 197.906 448.814 198.113C448.623 198.316 448.527 198.609 448.527 198.992V199.66H449.881V200.498H448.527V206H447.443ZM454.996 206C454.934 205.875 454.883 205.652 454.844 205.332C454.34 205.855 453.738 206.117 453.039 206.117C452.414 206.117 451.9 205.941 451.498 205.59C451.1 205.234 450.9 204.785 450.9 204.242C450.9 203.582 451.15 203.07 451.65 202.707C452.154 202.34 452.861 202.156 453.771 202.156H454.826V201.658C454.826 201.279 454.713 200.979 454.486 200.756C454.26 200.529 453.926 200.416 453.484 200.416C453.098 200.416 452.773 200.514 452.512 200.709C452.25 200.904 452.119 201.141 452.119 201.418H451.029C451.029 201.102 451.141 200.797 451.363 200.504C451.59 200.207 451.895 199.973 452.277 199.801C452.664 199.629 453.088 199.543 453.549 199.543C454.279 199.543 454.852 199.727 455.266 200.094C455.68 200.457 455.895 200.959 455.91 201.6V204.518C455.91 205.1 455.984 205.562 456.133 205.906V206H454.996ZM453.197 205.174C453.537 205.174 453.859 205.086 454.164 204.91C454.469 204.734 454.689 204.506 454.826 204.225V202.924H453.977C452.648 202.924 451.984 203.312 451.984 204.09C451.984 204.43 452.098 204.695 452.324 204.887C452.551 205.078 452.842 205.174 453.197 205.174ZM460.152 205.232C460.539 205.232 460.877 205.115 461.166 204.881C461.455 204.646 461.615 204.354 461.646 204.002H462.672C462.652 204.365 462.527 204.711 462.297 205.039C462.066 205.367 461.758 205.629 461.371 205.824C460.988 206.02 460.582 206.117 460.152 206.117C459.289 206.117 458.602 205.83 458.09 205.256C457.582 204.678 457.328 203.889 457.328 202.889V202.707C457.328 202.09 457.441 201.541 457.668 201.061C457.895 200.58 458.219 200.207 458.641 199.941C459.066 199.676 459.568 199.543 460.146 199.543C460.857 199.543 461.447 199.756 461.916 200.182C462.389 200.607 462.641 201.16 462.672 201.84H461.646C461.615 201.43 461.459 201.094 461.178 200.832C460.9 200.566 460.557 200.434 460.146 200.434C459.596 200.434 459.168 200.633 458.863 201.031C458.562 201.426 458.412 201.998 458.412 202.748V202.953C458.412 203.684 458.562 204.246 458.863 204.641C459.164 205.035 459.594 205.232 460.152 205.232ZM466.434 205.232C466.82 205.232 467.158 205.115 467.447 204.881C467.736 204.646 467.896 204.354 467.928 204.002H468.953C468.934 204.365 468.809 204.711 468.578 205.039C468.348 205.367 468.039 205.629 467.652 205.824C467.27 206.02 466.863 206.117 466.434 206.117C465.57 206.117 464.883 205.83 464.371 205.256C463.863 204.678 463.609 203.889 463.609 202.889V202.707C463.609 202.09 463.723 201.541 463.949 201.061C464.176 200.58 464.5 200.207 464.922 199.941C465.348 199.676 465.85 199.543 466.428 199.543C467.139 199.543 467.729 199.756 468.197 200.182C468.67 200.607 468.922 201.16 468.953 201.84H467.928C467.896 201.43 467.74 201.094 467.459 200.832C467.182 200.566 466.838 200.434 466.428 200.434C465.877 200.434 465.449 200.633 465.145 201.031C464.844 201.426 464.693 201.998 464.693 202.748V202.953C464.693 203.684 464.844 204.246 465.145 204.641C465.445 205.035 465.875 205.232 466.434 205.232ZM471.35 206H470.266V199.66H471.35V206ZM470.178 197.979C470.178 197.803 470.23 197.654 470.336 197.533C470.445 197.412 470.605 197.352 470.816 197.352C471.027 197.352 471.188 197.412 471.297 197.533C471.406 197.654 471.461 197.803 471.461 197.979C471.461 198.154 471.406 198.301 471.297 198.418C471.188 198.535 471.027 198.594 470.816 198.594C470.605 198.594 470.445 198.535 470.336 198.418C470.23 198.301 470.178 198.154 470.178 197.979ZM477.004 206C476.941 205.875 476.891 205.652 476.852 205.332C476.348 205.855 475.746 206.117 475.047 206.117C474.422 206.117 473.908 205.941 473.506 205.59C473.107 205.234 472.908 204.785 472.908 204.242C472.908 203.582 473.158 203.07 473.658 202.707C474.162 202.34 474.869 202.156 475.779 202.156H476.834V201.658C476.834 201.279 476.721 200.979 476.494 200.756C476.268 200.529 475.934 200.416 475.492 200.416C475.105 200.416 474.781 200.514 474.52 200.709C474.258 200.904 474.127 201.141 474.127 201.418H473.037C473.037 201.102 473.148 200.797 473.371 200.504C473.598 200.207 473.902 199.973 474.285 199.801C474.672 199.629 475.096 199.543 475.557 199.543C476.287 199.543 476.859 199.727 477.273 200.094C477.688 200.457 477.902 200.959 477.918 201.6V204.518C477.918 205.1 477.992 205.562 478.141 205.906V206H477.004ZM475.205 205.174C475.545 205.174 475.867 205.086 476.172 204.91C476.477 204.734 476.697 204.506 476.834 204.225V202.924H475.984C474.656 202.924 473.992 203.312 473.992 204.09C473.992 204.43 474.105 204.695 474.332 204.887C474.559 205.078 474.85 205.174 475.205 205.174ZM488.207 204.506L489.426 199.66H490.51L488.664 206H487.785L486.244 201.195L484.744 206H483.865L482.025 199.66H483.104L484.352 204.406L485.828 199.66H486.701L488.207 204.506ZM492.795 206H491.711V197H492.795V206ZM498.449 206C498.387 205.875 498.336 205.652 498.297 205.332C497.793 205.855 497.191 206.117 496.492 206.117C495.867 206.117 495.354 205.941 494.951 205.59C494.553 205.234 494.354 204.785 494.354 204.242C494.354 203.582 494.604 203.07 495.104 202.707C495.607 202.34 496.314 202.156 497.225 202.156H498.279V201.658C498.279 201.279 498.166 200.979 497.939 200.756C497.713 200.529 497.379 200.416 496.938 200.416C496.551 200.416 496.227 200.514 495.965 200.709C495.703 200.904 495.572 201.141 495.572 201.418H494.482C494.482 201.102 494.594 200.797 494.816 200.504C495.043 200.207 495.348 199.973 495.73 199.801C496.117 199.629 496.541 199.543 497.002 199.543C497.732 199.543 498.305 199.727 498.719 200.094C499.133 200.457 499.348 200.959 499.363 201.6V204.518C499.363 205.1 499.438 205.562 499.586 205.906V206H498.449ZM496.65 205.174C496.99 205.174 497.312 205.086 497.617 204.91C497.922 204.734 498.143 204.506 498.279 204.225V202.924H497.43C496.102 202.924 495.438 203.312 495.438 204.09C495.438 204.43 495.551 204.695 495.777 204.887C496.004 205.078 496.295 205.174 496.65 205.174ZM502.088 199.66L502.123 200.457C502.607 199.848 503.24 199.543 504.021 199.543C505.361 199.543 506.037 200.299 506.049 201.811V206H504.965V201.805C504.961 201.348 504.855 201.01 504.648 200.791C504.445 200.572 504.127 200.463 503.693 200.463C503.342 200.463 503.033 200.557 502.768 200.744C502.502 200.932 502.295 201.178 502.146 201.482V206H501.062V199.66H502.088ZM512.922 202.361C512.922 203.631 512.705 204.574 512.271 205.191C511.838 205.809 511.16 206.117 510.238 206.117C509.328 206.117 508.654 205.816 508.217 205.215C507.779 204.609 507.553 203.707 507.537 202.508V201.061C507.537 199.807 507.754 198.875 508.188 198.266C508.621 197.656 509.301 197.352 510.227 197.352C511.145 197.352 511.82 197.646 512.254 198.236C512.688 198.822 512.91 199.729 512.922 200.955V202.361ZM511.838 200.879C511.838 199.961 511.709 199.293 511.451 198.875C511.193 198.453 510.785 198.242 510.227 198.242C509.672 198.242 509.268 198.451 509.014 198.869C508.76 199.287 508.629 199.93 508.621 200.797V202.531C508.621 203.453 508.754 204.135 509.02 204.576C509.289 205.014 509.695 205.232 510.238 205.232C510.773 205.232 511.17 205.025 511.428 204.611C511.689 204.197 511.826 203.545 511.838 202.654V200.879ZM516.924 202.596C516.924 203.467 516.809 204.303 516.578 205.104C516.352 205.9 516.002 206.637 515.529 207.312C515.061 207.988 514.568 208.469 514.053 208.754L513.824 208.092C514.426 207.631 514.908 206.916 515.271 205.947C515.639 204.975 515.826 203.896 515.834 202.713V202.525C515.834 201.705 515.748 200.943 515.576 200.24C515.404 199.533 515.164 198.9 514.855 198.342C514.551 197.783 514.207 197.348 513.824 197.035L514.053 196.373C514.568 196.658 515.059 197.135 515.523 197.803C515.992 198.471 516.342 199.207 516.572 200.012C516.807 200.816 516.924 201.678 516.924 202.596Z" fill="black"/>
<g filter="url(#filter0_b)">
<path d="M262.197 247H261.072V238.469H262.197V247ZM265.385 243.66V247H264.26V238.469H267.406C268.34 238.469 269.07 238.707 269.598 239.184C270.129 239.66 270.395 240.291 270.395 241.076C270.395 241.904 270.135 242.543 269.615 242.992C269.1 243.438 268.359 243.66 267.395 243.66H265.385ZM265.385 242.74H267.406C268.008 242.74 268.469 242.6 268.789 242.318C269.109 242.033 269.27 241.623 269.27 241.088C269.27 240.58 269.109 240.174 268.789 239.869C268.469 239.564 268.029 239.406 267.471 239.395H265.385V242.74ZM277.701 241.633C277.537 241.605 277.359 241.592 277.168 241.592C276.457 241.592 275.975 241.895 275.721 242.5V247H274.637V240.66H275.691L275.709 241.393C276.064 240.826 276.568 240.543 277.221 240.543C277.432 240.543 277.592 240.57 277.701 240.625V241.633ZM281.217 247.117C280.357 247.117 279.658 246.836 279.119 246.273C278.58 245.707 278.311 244.951 278.311 244.006V243.807C278.311 243.178 278.43 242.617 278.668 242.125C278.91 241.629 279.246 241.242 279.676 240.965C280.109 240.684 280.578 240.543 281.082 240.543C281.906 240.543 282.547 240.814 283.004 241.357C283.461 241.9 283.689 242.678 283.689 243.689V244.141H279.395C279.41 244.766 279.592 245.271 279.939 245.658C280.291 246.041 280.736 246.232 281.275 246.232C281.658 246.232 281.982 246.154 282.248 245.998C282.514 245.842 282.746 245.635 282.945 245.377L283.607 245.893C283.076 246.709 282.279 247.117 281.217 247.117ZM281.082 241.434C280.645 241.434 280.277 241.594 279.98 241.914C279.684 242.23 279.5 242.676 279.43 243.25H282.605V243.168C282.574 242.617 282.426 242.191 282.16 241.891C281.895 241.586 281.535 241.434 281.082 241.434ZM286.42 239.125V240.66H287.604V241.498H286.42V245.43C286.42 245.684 286.473 245.875 286.578 246.004C286.684 246.129 286.863 246.191 287.117 246.191C287.242 246.191 287.414 246.168 287.633 246.121V247C287.348 247.078 287.07 247.117 286.801 247.117C286.316 247.117 285.951 246.971 285.705 246.678C285.459 246.385 285.336 245.969 285.336 245.43V241.498H284.182V240.66H285.336V239.125H286.42ZM291.506 247.117C290.646 247.117 289.947 246.836 289.408 246.273C288.869 245.707 288.6 244.951 288.6 244.006V243.807C288.6 243.178 288.719 242.617 288.957 242.125C289.199 241.629 289.535 241.242 289.965 240.965C290.398 240.684 290.867 240.543 291.371 240.543C292.195 240.543 292.836 240.814 293.293 241.357C293.75 241.9 293.979 242.678 293.979 243.689V244.141H289.684C289.699 244.766 289.881 245.271 290.229 245.658C290.58 246.041 291.025 246.232 291.564 246.232C291.947 246.232 292.271 246.154 292.537 245.998C292.803 245.842 293.035 245.635 293.234 245.377L293.896 245.893C293.365 246.709 292.568 247.117 291.506 247.117ZM291.371 241.434C290.934 241.434 290.566 241.594 290.27 241.914C289.973 242.23 289.789 242.676 289.719 243.25H292.895V243.168C292.863 242.617 292.715 242.191 292.449 241.891C292.184 241.586 291.824 241.434 291.371 241.434ZM299.393 247H298.309V238H299.393V247ZM300.846 243.771C300.846 243.15 300.967 242.592 301.209 242.096C301.455 241.6 301.795 241.217 302.229 240.947C302.666 240.678 303.164 240.543 303.723 240.543C304.586 240.543 305.283 240.842 305.814 241.439C306.35 242.037 306.617 242.832 306.617 243.824V243.9C306.617 244.518 306.498 245.072 306.26 245.564C306.025 246.053 305.688 246.434 305.246 246.707C304.809 246.98 304.305 247.117 303.734 247.117C302.875 247.117 302.178 246.818 301.643 246.221C301.111 245.623 300.846 244.832 300.846 243.848V243.771ZM301.936 243.9C301.936 244.604 302.098 245.168 302.422 245.594C302.75 246.02 303.188 246.232 303.734 246.232C304.285 246.232 304.723 246.018 305.047 245.588C305.371 245.154 305.533 244.549 305.533 243.771C305.533 243.076 305.367 242.514 305.035 242.084C304.707 241.65 304.27 241.434 303.723 241.434C303.188 241.434 302.756 241.646 302.428 242.072C302.1 242.498 301.936 243.107 301.936 243.9ZM310.52 246.232C310.906 246.232 311.244 246.115 311.533 245.881C311.822 245.646 311.982 245.354 312.014 245.002H313.039C313.02 245.365 312.895 245.711 312.664 246.039C312.434 246.367 312.125 246.629 311.738 246.824C311.355 247.02 310.949 247.117 310.52 247.117C309.656 247.117 308.969 246.83 308.457 246.256C307.949 245.678 307.695 244.889 307.695 243.889V243.707C307.695 243.09 307.809 242.541 308.035 242.061C308.262 241.58 308.586 241.207 309.008 240.941C309.434 240.676 309.936 240.543 310.514 240.543C311.225 240.543 311.814 240.756 312.283 241.182C312.756 241.607 313.008 242.16 313.039 242.84H312.014C311.982 242.43 311.826 242.094 311.545 241.832C311.268 241.566 310.924 241.434 310.514 241.434C309.963 241.434 309.535 241.633 309.23 242.031C308.93 242.426 308.779 242.998 308.779 243.748V243.953C308.779 244.684 308.93 245.246 309.23 245.641C309.531 246.035 309.961 246.232 310.52 246.232ZM318.172 247C318.109 246.875 318.059 246.652 318.02 246.332C317.516 246.855 316.914 247.117 316.215 247.117C315.59 247.117 315.076 246.941 314.674 246.59C314.275 246.234 314.076 245.785 314.076 245.242C314.076 244.582 314.326 244.07 314.826 243.707C315.33 243.34 316.037 243.156 316.947 243.156H318.002V242.658C318.002 242.279 317.889 241.979 317.662 241.756C317.436 241.529 317.102 241.416 316.66 241.416C316.273 241.416 315.949 241.514 315.688 241.709C315.426 241.904 315.295 242.141 315.295 242.418H314.205C314.205 242.102 314.316 241.797 314.539 241.504C314.766 241.207 315.07 240.973 315.453 240.801C315.84 240.629 316.264 240.543 316.725 240.543C317.455 240.543 318.027 240.727 318.441 241.094C318.855 241.457 319.07 241.959 319.086 242.6V245.518C319.086 246.1 319.16 246.562 319.309 246.906V247H318.172ZM316.373 246.174C316.713 246.174 317.035 246.086 317.34 245.91C317.645 245.734 317.865 245.506 318.002 245.225V243.924H317.152C315.824 243.924 315.16 244.312 315.16 245.09C315.16 245.43 315.273 245.695 315.5 245.887C315.727 246.078 316.018 246.174 316.373 246.174ZM321.963 247H320.879V238H321.963V247ZM326.334 247.117C325.475 247.117 324.775 246.836 324.236 246.273C323.697 245.707 323.428 244.951 323.428 244.006V243.807C323.428 243.178 323.547 242.617 323.785 242.125C324.027 241.629 324.363 241.242 324.793 240.965C325.227 240.684 325.695 240.543 326.199 240.543C327.023 240.543 327.664 240.814 328.121 241.357C328.578 241.9 328.807 242.678 328.807 243.689V244.141H324.512C324.527 244.766 324.709 245.271 325.057 245.658C325.408 246.041 325.854 246.232 326.393 246.232C326.775 246.232 327.1 246.154 327.365 245.998C327.631 245.842 327.863 245.635 328.062 245.377L328.725 245.893C328.193 246.709 327.396 247.117 326.334 247.117ZM326.199 241.434C325.762 241.434 325.395 241.594 325.098 241.914C324.801 242.23 324.617 242.676 324.547 243.25H327.723V243.168C327.691 242.617 327.543 242.191 327.277 241.891C327.012 241.586 326.652 241.434 326.199 241.434ZM260.779 257.537C260.779 256.654 260.896 255.807 261.131 254.994C261.369 254.182 261.723 253.443 262.191 252.779C262.66 252.115 263.146 251.646 263.65 251.373L263.873 252.088C263.303 252.525 262.834 253.193 262.467 254.092C262.104 254.99 261.904 255.996 261.869 257.109L261.863 257.607C261.863 259.115 262.139 260.424 262.689 261.533C263.021 262.197 263.416 262.717 263.873 263.092L263.65 263.754C263.131 263.465 262.635 262.98 262.162 262.301C261.24 260.973 260.779 259.385 260.779 257.537ZM266.1 261H265.016V254.66H266.1V261ZM264.928 252.979C264.928 252.803 264.98 252.654 265.086 252.533C265.195 252.412 265.355 252.352 265.566 252.352C265.777 252.352 265.938 252.412 266.047 252.533C266.156 252.654 266.211 252.803 266.211 252.979C266.211 253.154 266.156 253.301 266.047 253.418C265.938 253.535 265.777 253.594 265.566 253.594C265.355 253.594 265.195 253.535 265.086 253.418C264.98 253.301 264.928 253.154 264.928 252.979ZM268.865 254.66L268.9 255.457C269.385 254.848 270.018 254.543 270.799 254.543C272.139 254.543 272.814 255.299 272.826 256.811V261H271.742V256.805C271.738 256.348 271.633 256.01 271.426 255.791C271.223 255.572 270.904 255.463 270.471 255.463C270.119 255.463 269.811 255.557 269.545 255.744C269.279 255.932 269.072 256.178 268.924 256.482V261H267.84V254.66H268.865ZM275.932 253.125V254.66H277.115V255.498H275.932V259.43C275.932 259.684 275.984 259.875 276.09 260.004C276.195 260.129 276.375 260.191 276.629 260.191C276.754 260.191 276.926 260.168 277.145 260.121V261C276.859 261.078 276.582 261.117 276.312 261.117C275.828 261.117 275.463 260.971 275.217 260.678C274.971 260.385 274.848 259.969 274.848 259.43V255.498H273.693V254.66H274.848V253.125H275.932ZM281.018 261.117C280.158 261.117 279.459 260.836 278.92 260.273C278.381 259.707 278.111 258.951 278.111 258.006V257.807C278.111 257.178 278.23 256.617 278.469 256.125C278.711 255.629 279.047 255.242 279.477 254.965C279.91 254.684 280.379 254.543 280.883 254.543C281.707 254.543 282.348 254.814 282.805 255.357C283.262 255.9 283.49 256.678 283.49 257.689V258.141H279.195C279.211 258.766 279.393 259.271 279.74 259.658C280.092 260.041 280.537 260.232 281.076 260.232C281.459 260.232 281.783 260.154 282.049 259.998C282.314 259.842 282.547 259.635 282.746 259.377L283.408 259.893C282.877 260.709 282.08 261.117 281.018 261.117ZM280.883 255.434C280.445 255.434 280.078 255.594 279.781 255.914C279.484 256.23 279.301 256.676 279.23 257.25H282.406V257.168C282.375 256.617 282.227 256.191 281.961 255.891C281.695 255.586 281.336 255.434 280.883 255.434ZM287.814 255.633C287.65 255.605 287.473 255.592 287.281 255.592C286.57 255.592 286.088 255.895 285.834 256.5V261H284.75V254.66H285.805L285.822 255.393C286.178 254.826 286.682 254.543 287.334 254.543C287.545 254.543 287.705 254.57 287.814 254.625V255.633ZM289.443 261V255.498H288.441V254.66H289.443V254.01C289.443 253.33 289.625 252.805 289.988 252.434C290.352 252.062 290.865 251.877 291.529 251.877C291.779 251.877 292.027 251.91 292.273 251.977L292.215 252.855C292.031 252.82 291.836 252.803 291.629 252.803C291.277 252.803 291.006 252.906 290.814 253.113C290.623 253.316 290.527 253.609 290.527 253.992V254.66H291.881V255.498H290.527V261H289.443ZM296.996 261C296.934 260.875 296.883 260.652 296.844 260.332C296.34 260.855 295.738 261.117 295.039 261.117C294.414 261.117 293.9 260.941 293.498 260.59C293.1 260.234 292.9 259.785 292.9 259.242C292.9 258.582 293.15 258.07 293.65 257.707C294.154 257.34 294.861 257.156 295.771 257.156H296.826V256.658C296.826 256.279 296.713 255.979 296.486 255.756C296.26 255.529 295.926 255.416 295.484 255.416C295.098 255.416 294.773 255.514 294.512 255.709C294.25 255.904 294.119 256.141 294.119 256.418H293.029C293.029 256.102 293.141 255.797 293.363 255.504C293.59 255.207 293.895 254.973 294.277 254.801C294.664 254.629 295.088 254.543 295.549 254.543C296.279 254.543 296.852 254.727 297.266 255.094C297.68 255.457 297.895 255.959 297.91 256.6V259.518C297.91 260.1 297.984 260.562 298.133 260.906V261H296.996ZM295.197 260.174C295.537 260.174 295.859 260.086 296.164 259.91C296.469 259.734 296.689 259.506 296.826 259.225V257.924H295.977C294.648 257.924 293.984 258.312 293.984 259.09C293.984 259.43 294.098 259.695 294.324 259.887C294.551 260.078 294.842 260.174 295.197 260.174ZM302.152 260.232C302.539 260.232 302.877 260.115 303.166 259.881C303.455 259.646 303.615 259.354 303.646 259.002H304.672C304.652 259.365 304.527 259.711 304.297 260.039C304.066 260.367 303.758 260.629 303.371 260.824C302.988 261.02 302.582 261.117 302.152 261.117C301.289 261.117 300.602 260.83 300.09 260.256C299.582 259.678 299.328 258.889 299.328 257.889V257.707C299.328 257.09 299.441 256.541 299.668 256.061C299.895 255.58 300.219 255.207 300.641 254.941C301.066 254.676 301.568 254.543 302.146 254.543C302.857 254.543 303.447 254.756 303.916 255.182C304.389 255.607 304.641 256.16 304.672 256.84H303.646C303.615 256.43 303.459 256.094 303.178 255.832C302.9 255.566 302.557 255.434 302.146 255.434C301.596 255.434 301.168 255.633 300.863 256.031C300.562 256.426 300.412 256.998 300.412 257.748V257.953C300.412 258.684 300.562 259.246 300.863 259.641C301.164 260.035 301.594 260.232 302.152 260.232ZM308.434 260.232C308.82 260.232 309.158 260.115 309.447 259.881C309.736 259.646 309.896 259.354 309.928 259.002H310.953C310.934 259.365 310.809 259.711 310.578 260.039C310.348 260.367 310.039 260.629 309.652 260.824C309.27 261.02 308.863 261.117 308.434 261.117C307.57 261.117 306.883 260.83 306.371 260.256C305.863 259.678 305.609 258.889 305.609 257.889V257.707C305.609 257.09 305.723 256.541 305.949 256.061C306.176 255.58 306.5 255.207 306.922 254.941C307.348 254.676 307.85 254.543 308.428 254.543C309.139 254.543 309.729 254.756 310.197 255.182C310.67 255.607 310.922 256.16 310.953 256.84H309.928C309.896 256.43 309.74 256.094 309.459 255.832C309.182 255.566 308.838 255.434 308.428 255.434C307.877 255.434 307.449 255.633 307.145 256.031C306.844 256.426 306.693 256.998 306.693 257.748V257.953C306.693 258.684 306.844 259.246 307.145 259.641C307.445 260.035 307.875 260.232 308.434 260.232ZM313.35 261H312.266V254.66H313.35V261ZM312.178 252.979C312.178 252.803 312.23 252.654 312.336 252.533C312.445 252.412 312.605 252.352 312.816 252.352C313.027 252.352 313.188 252.412 313.297 252.533C313.406 252.654 313.461 252.803 313.461 252.979C313.461 253.154 313.406 253.301 313.297 253.418C313.188 253.535 313.027 253.594 312.816 253.594C312.605 253.594 312.445 253.535 312.336 253.418C312.23 253.301 312.178 253.154 312.178 252.979ZM319.004 261C318.941 260.875 318.891 260.652 318.852 260.332C318.348 260.855 317.746 261.117 317.047 261.117C316.422 261.117 315.908 260.941 315.506 260.59C315.107 260.234 314.908 259.785 314.908 259.242C314.908 258.582 315.158 258.07 315.658 257.707C316.162 257.34 316.869 257.156 317.779 257.156H318.834V256.658C318.834 256.279 318.721 255.979 318.494 255.756C318.268 255.529 317.934 255.416 317.492 255.416C317.105 255.416 316.781 255.514 316.52 255.709C316.258 255.904 316.127 256.141 316.127 256.418H315.037C315.037 256.102 315.148 255.797 315.371 255.504C315.598 255.207 315.902 254.973 316.285 254.801C316.672 254.629 317.096 254.543 317.557 254.543C318.287 254.543 318.859 254.727 319.273 255.094C319.688 255.457 319.902 255.959 319.918 256.6V259.518C319.918 260.1 319.992 260.562 320.141 260.906V261H319.004ZM317.205 260.174C317.545 260.174 317.867 260.086 318.172 259.91C318.477 259.734 318.697 259.506 318.834 259.225V257.924H317.984C316.656 257.924 315.992 258.312 315.992 259.09C315.992 259.43 316.105 259.695 316.332 259.887C316.559 260.078 316.85 260.174 317.205 260.174ZM327.225 261.117C326.365 261.117 325.666 260.836 325.127 260.273C324.588 259.707 324.318 258.951 324.318 258.006V257.807C324.318 257.178 324.438 256.617 324.676 256.125C324.918 255.629 325.254 255.242 325.684 254.965C326.117 254.684 326.586 254.543 327.09 254.543C327.914 254.543 328.555 254.814 329.012 255.357C329.469 255.9 329.697 256.678 329.697 257.689V258.141H325.402C325.418 258.766 325.6 259.271 325.947 259.658C326.299 260.041 326.744 260.232 327.283 260.232C327.666 260.232 327.99 260.154 328.256 259.998C328.521 259.842 328.754 259.635 328.953 259.377L329.615 259.893C329.084 260.709 328.287 261.117 327.225 261.117ZM327.09 255.434C326.652 255.434 326.285 255.594 325.988 255.914C325.691 256.23 325.508 256.676 325.438 257.25H328.613V257.168C328.582 256.617 328.434 256.191 328.168 255.891C327.902 255.586 327.543 255.434 327.09 255.434ZM332.428 253.125V254.66H333.611V255.498H332.428V259.43C332.428 259.684 332.48 259.875 332.586 260.004C332.691 260.129 332.871 260.191 333.125 260.191C333.25 260.191 333.422 260.168 333.641 260.121V261C333.355 261.078 333.078 261.117 332.809 261.117C332.324 261.117 331.959 260.971 331.713 260.678C331.467 260.385 331.344 259.969 331.344 259.43V255.498H330.189V254.66H331.344V253.125H332.428ZM335.967 255.428C336.447 254.838 337.072 254.543 337.842 254.543C339.182 254.543 339.857 255.299 339.869 256.811V261H338.785V256.805C338.781 256.348 338.676 256.01 338.469 255.791C338.266 255.572 337.947 255.463 337.514 255.463C337.162 255.463 336.854 255.557 336.588 255.744C336.322 255.932 336.115 256.178 335.967 256.482V261H334.883V252H335.967V255.428ZM346.73 257.361C346.73 258.631 346.514 259.574 346.08 260.191C345.646 260.809 344.969 261.117 344.047 261.117C343.137 261.117 342.463 260.816 342.025 260.215C341.588 259.609 341.361 258.707 341.346 257.508V256.061C341.346 254.807 341.562 253.875 341.996 253.266C342.43 252.656 343.109 252.352 344.035 252.352C344.953 252.352 345.629 252.646 346.062 253.236C346.496 253.822 346.719 254.729 346.73 255.955V257.361ZM345.646 255.879C345.646 254.961 345.518 254.293 345.26 253.875C345.002 253.453 344.594 253.242 344.035 253.242C343.48 253.242 343.076 253.451 342.822 253.869C342.568 254.287 342.438 254.93 342.43 255.797V257.531C342.43 258.453 342.562 259.135 342.828 259.576C343.098 260.014 343.504 260.232 344.047 260.232C344.582 260.232 344.979 260.025 345.236 259.611C345.498 259.197 345.635 258.545 345.646 257.654V255.879ZM350.732 257.596C350.732 258.467 350.617 259.303 350.387 260.104C350.16 260.9 349.811 261.637 349.338 262.312C348.869 262.988 348.377 263.469 347.861 263.754L347.633 263.092C348.234 262.631 348.717 261.916 349.08 260.947C349.447 259.975 349.635 258.896 349.643 257.713V257.525C349.643 256.705 349.557 255.943 349.385 255.24C349.213 254.533 348.973 253.9 348.664 253.342C348.359 252.783 348.016 252.348 347.633 252.035L347.861 251.373C348.377 251.658 348.867 252.135 349.332 252.803C349.801 253.471 350.15 254.207 350.381 255.012C350.615 255.816 350.732 256.678 350.732 257.596Z" fill="black"/>
</g>
<defs>
<filter id="filter0_b" x="256.779" y="234" width="97.9531" height="33.7539" filterUnits="userSpaceOnUse" color-interpolation-filters="sRGB">
<feFlood flood-opacity="0" result="BackgroundImageFix"/>
<feGaussianBlur in="BackgroundImage" stdDeviation="2"/>
<feComposite in2="SourceAlpha" operator="in" result="effect1_backgroundBlur"/>
<feBlend mode="normal" in="SourceGraphic" in2="effect1_backgroundBlur" result="shape"/>
</filter>
</defs>
</svg>
